<svg xmlns="http://www.w3.org/2000/svg" version="1.1" xmlns:xlink="http://www.w3.org/1999/xlink" xmlns:svgjs="http://svgjs.com/svgjs" width="2000" height="1500" preserveAspectRatio="none" viewBox="0 0 2000 1500"><g mask="url(&quot;#SvgjsMask3782&quot;)" fill="none"><rect width="2000" height="1500" x="0" y="0" fill="rgba(243, 245, 247, 1)"></rect><use xlink:href="#SvgjsG3792" transform="translate(0, 0)" fill="rgba(15, 69, 123, 0.17)"></use><use xlink:href="#SvgjsG3792" transform="translate(0, 735)" fill="rgba(15, 69, 123, 0.17)"></use><use xlink:href="#SvgjsG3792" transform="translate(0, 1470)" fill="rgba(15, 69, 123, 0.17)"></use><use xlink:href="#SvgjsG3792" transform="translate(735, 0)" fill="rgba(15, 69, 123, 0.17)"></use><use xlink:href="#SvgjsG3792" transform="translate(735, 735)" fill="rgba(15, 69, 123, 0.17)"></use><use xlink:href="#SvgjsG3792" transform="translate(735, 1470)" fill="rgba(15, 69, 123, 0.17)"></use><use xlink:href="#SvgjsG3792" transform="translate(1470, 0)" fill="rgba(15, 69, 123, 0.17)"></use><use xlink:href="#SvgjsG3792" transform="translate(1470, 735)" fill="rgba(15, 69, 123, 0.17)"></use><use xlink:href="#SvgjsG3792" transform="translate(1470, 1470)" fill="rgba(15, 69, 123, 0.17)"></use></g><defs><mask id="SvgjsMask3782"><rect width="2000" height="1500" fill="#ffffff"></rect></mask><g id="SvgjsG3789"><path d="M7.713 15.485C3.459 15.485 0 12.025 0 7.768 0 3.513 3.459 0.051 7.713 0.051S15.432 3.513 15.432 7.768c0 4.257-3.465 7.716-7.719 7.717z m0-1.91c3.201 0 5.81-2.604 5.81-5.809 0-3.199-2.61-5.807-5.81-5.807-3.202 0-5.804 2.609-5.804 5.807-0.001 3.206 2.602 5.809 5.804 5.809z"></path><path d="M7.753 8.787a0.574 0.574 0 0 1-0.554-0.042 0.578 0.578 0 0 1-0.259-0.399L6.931 3.862a0.58 0.58 0 0 1 1.162 0v3.478l2.975-1.4a0.578 0.578 0 0 1 0.773 0.275c0.138 0.292 0.011 0.637-0.276 0.774l-3.81 1.798z"></path></g><g id="SvgjsG3790"><path d="M1.507 0.867v14.666h12.877V0.867h-12.878z m3.76 12.876H3.087V11.564H5.267v2.179z m0-3.328H3.087V8.236H5.267v2.179z m3.768 3.328H6.856V11.564h2.179v2.179z m0-3.328H6.856V8.236h2.179v2.179z m3.775 3.328H10.631v-5.507h2.179v5.507z m0.08-7.65h-9.78V2.602h9.78V6.093z"></path></g><g id="SvgjsG3783"><path d="M7.945 2.35L0 7.479h1.862V13.677H6.372V8.755h3.134V13.677h4.513V7.479H15.874L7.945 2.35z" fill-rule="evenodd"></path></g><g id="SvgjsG3788"><path d="M10.596 3.917a0.64 0.64 0 0 0-0.639 0.641c0 0.354 0.287 0.64 0.639 0.64a0.639 0.639 0 0 0 0.639-0.64 0.639 0.639 0 0 0-0.639-0.641z m-0.151 5.25a0.642 0.642 0 0 0 0.643 0.641c0.352 0 0.638-0.286 0.637-0.64a0.639 0.639 0 0 0-0.637-0.641 0.641 0.641 0 0 0-0.642 0.641z m-4.678-5.945a0.641 0.641 0 0 0 0 1.282 0.64 0.64 0 0 0 0.642-0.64 0.641 0.641 0 0 0-0.642-0.642z"></path><path d="M8.659 0C5.904 0 3.363 2.068 2.835 4.347c-0.119 0.507-0.25 1.83-0.25 1.829L1.316 9.37A0.488 0.488 0 0 0 1.28 9.561a0.491 0.491 0 0 0 0.491 0.489h0.814v1.697c0 1.323 1.072 2.395 2.394 2.395h0.951V16H12.408V10.847c1.413-1.111 2.32-2.838 2.32-4.775C14.728 2.718 12.01 0 8.659 0z m-4.583 7.387c-0.372 0-0.675-0.304-0.675-0.679a0.677 0.677 0 0 1 0.675-0.677c0.375 0 0.68 0.303 0.68 0.677a0.68 0.68 0 0 1-0.68 0.679z m8.959-0.918l-0.631 0.632-0.77-0.543c-0.148 0.077-0.304 0.139-0.467 0.18l-0.142 0.838h0.294l0.079 0.448c0.031 0.008 0.062 0.013 0.092 0.024 0.079 0.029 0.152 0.067 0.22 0.11l0.355-0.25 0.292 0.291-0.262 0.371c0.056 0.1 0.101 0.206 0.125 0.318l0.429 0.074v0.412l-0.446 0.076c-0.009 0.032-0.013 0.063-0.024 0.094a1.147 1.147 0 0 1-0.112 0.223l0.251 0.353-0.292 0.291-0.369-0.262a1.149 1.149 0 0 1-0.318 0.126l-0.075 0.429H10.851l-0.074-0.448c-0.032-0.009-0.064-0.013-0.096-0.025a1.174 1.174 0 0 1-0.221-0.11l-0.356 0.252L9.815 10.08l0.262-0.37a1.151 1.151 0 0 1-0.125-0.319l-0.431-0.074v-0.411l0.45-0.077c0.008-0.032 0.013-0.063 0.025-0.094 0.029-0.079 0.066-0.152 0.109-0.22l-0.251-0.356 0.291-0.291 0.371 0.262a1.174 1.174 0 0 1 0.317-0.125l0.064-0.372h-0.776L9.96 6.704c-0.035-0.011-0.07-0.02-0.104-0.034a2.221 2.221 0 0 1-0.352-0.168l-0.744 0.524-0.63-0.632 0.542-0.767a2.184 2.184 0 0 1-0.181-0.469l-0.894-0.154V4.27l-0.449 0.078c-0.007 0.022-0.009 0.044-0.017 0.065a1.402 1.402 0 0 1-0.109 0.223l0.345 0.489-0.416 0.414-0.506-0.357a1.438 1.438 0 0 1-0.294 0.116l-0.102 0.586-0.584 0-0.106-0.611c-0.02-0.007-0.042-0.009-0.062-0.017a1.43 1.43 0 0 1-0.226-0.11l-0.49 0.345-0.414-0.415 0.359-0.508a1.485 1.485 0 0 1-0.112-0.291L3.824 4.176V3.589l0.608-0.105c0.007-0.022 0.012-0.043 0.02-0.063 0.029-0.08 0.068-0.154 0.109-0.225l-0.345-0.488 0.413-0.415 0.508 0.358a1.439 1.439 0 0 1 0.295-0.117l0.102-0.586h0.584L6.224 2.56c0.021 0.007 0.043 0.008 0.063 0.016 0.08 0.03 0.154 0.069 0.225 0.11l0.489-0.344 0.415 0.414-0.359 0.507a1.397 1.397 0 0 1 0.115 0.293l0.586 0.101v0.427l0.768-0.132c0.011-0.035 0.02-0.07 0.033-0.105 0.046-0.126 0.104-0.243 0.17-0.355l-0.528-0.74 0.634-0.633 0.77 0.544a2.192 2.192 0 0 1 0.468-0.181l0.151-0.894h0.894l0.162 0.928c0.035 0.01 0.069 0.02 0.104 0.033 0.124 0.046 0.241 0.104 0.352 0.168l0.743-0.523 0.629 0.631-0.542 0.77c0.077 0.148 0.138 0.304 0.18 0.466l0.895 0.154v0.894l-0.929 0.16c-0.011 0.035-0.02 0.07-0.032 0.104-0.046 0.125-0.104 0.242-0.17 0.353l0.525 0.743z"></path></g><g id="SvgjsG3784"><path d="M2.796 14.654h-1.184C0.792 14.653 0.001 14.052 0 13.006c0 0 0.001-7.471 0-7.494 0.001-0.926 0.773-1.629 1.612-1.63h1.184v10.772z m7.448-10.754V2.352c0.004-0.558-0.49-0.914-1.093-0.91 0 0-2.303-0.004-2.294 0-0.6-0.004-1.103 0.352-1.102 0.91v1.548H3.597v10.772h8.823V3.9h-2.176z m-0.81 0H6.547v-1.593h2.887v1.593z m3.779 10.754h1.184c0.814-0.002 1.605-0.602 1.603-1.648 0 0 0.003-7.471 0-7.494 0.003-0.926-0.77-1.63-1.602-1.631h-1.184v10.772z"></path></g><g id="SvgjsG3786"><path d="M0.045 14.984h15.726V0H0.045v14.984zM1.389 3.404c0-1.105 0.893-2 2.004-2h9.04a2 2 0 0 1 2.002 2V8.838H13.221l-0.751-2.043a0.317 0.317 0 0 0-0.596 0.004c-0.045 0.125-0.212 0.602-0.42 1.194-0.32-1.336-0.993-4.158-0.993-4.158a0.315 0.315 0 0 0-0.326-0.243c-0.155 0.008-0.28 0.126-0.298 0.28s-0.515 4.598-0.664 5.913c-0.269-0.404-0.536-0.808-0.536-0.809a0.318 0.318 0 0 0-0.264-0.139h-1.221a1168.611 1168.611 0 0 0-0.749-2.043 0.32 0.32 0 0 0-0.301-0.206 0.312 0.312 0 0 0-0.294 0.21l-0.424 1.194c-0.319-1.335-0.992-4.158-0.992-4.157a0.317 0.317 0 0 0-0.624 0.037c0-0.001-0.515 4.596-0.664 5.912L2.567 8.977a0.316 0.316 0 0 0-0.263-0.139H1.389V3.404z m11.043 10.332H3.392a2 2 0 0 1-2.003-2.005v-2.261h0.741c0.156 0.233 0.924 1.389 0.924 1.39a0.318 0.318 0 0 0 0.58-0.14c0.016-0.133 0.341-3.034 0.56-4.975 0.366 1.541 0.821 3.439 0.821 3.439 0.031 0.137 0.15 0.236 0.29 0.243 0.142 0.008 0.269-0.079 0.316-0.211 0 0 0.257-0.731 0.487-1.377 0.243 0.661 0.526 1.423 0.526 1.423a0.312 0.312 0 0 0 0.295 0.208h1.271c0.156 0.232 0.925 1.389 0.925 1.389a0.316 0.316 0 0 0 0.337 0.132c0.131-0.03 0.227-0.14 0.241-0.272s0.342-3.034 0.561-4.976c0.366 1.543 0.819 3.44 0.82 3.44 0.032 0.137 0.15 0.236 0.29 0.243 0.142 0.008 0.269-0.079 0.315-0.211 0 0 0.26-0.731 0.488-1.377 0.242 0.661 0.523 1.423 0.523 1.423a0.315 0.315 0 0 0 0.296 0.208h1.436v2.261a2.001 2.001 0 0 1-2 2.003z" fill-rule="evenodd"></path></g><g id="SvgjsG3791"><path d="M8.312 4.802l0 0.521c0.492-0.069 0.443-0.509 0-0.52z m-0.51-0.627V3.715c-0.365 0.064-0.358 0.454 0 0.46z"></path><path d="M8.055 2.506c-1.128 0-2.044 0.915-2.044 2.043 0 1.129 0.915 2.044 2.045 2.044 1.129 0 2.043-0.915 2.043-2.044 0-1.128-0.915-2.043-2.043-2.043z m0.251 3.336v0.364h-0.507v-0.37c-0.29-0.043-0.822-0.323-0.855-0.924h0.534c0.034 0.154 0.078 0.34 0.321 0.409l-0.001-0.605c-0.334-0.048-0.814-0.194-0.814-0.73 0-0.602 0.666-0.789 0.813-0.789v-0.364h0.502v0.364c0.338 0.02 0.83 0.302 0.83 0.84h-0.528c-0.014-0.16-0.137-0.317-0.296-0.327v0.554c0.403 0.041 0.877 0.195 0.877 0.738 0 0.473-0.475 0.818-0.877 0.84z m1.733 5.54c-1.129 0-2.044 0.915-2.043 2.044s0.915 2.043 2.043 2.043 2.043-0.915 2.043-2.043c0-1.129-0.915-2.044-2.043-2.044zM10.955 13.739v0.499h-0.636v0.701h-0.542V14.238h-0.68v-0.49h0.688l-0.894-1.576h0.593l0.551 0.972 0.597-0.972h0.547L10.293 13.739h0.662z m-7.36-4.673c-1.129 0-2.044 0.915-2.043 2.044S2.467 13.154 3.595 13.154s2.044-0.915 2.044-2.044-0.915-2.044-2.044-2.044z m0.065 1.654v0.486h-0.367v1.165H2.773v-1.162h-0.31v-0.484h0.31v-0.436c0-0.168 0.163-0.68 0.777-0.68 0.627 0 0.762 0.494 0.762 0.908h-0.511c0-0.265-0.037-0.404-0.246-0.404-0.226 0-0.262 0.155-0.262 0.4v0.206h0.366z m1.173 0.482c-0.421 0.052-0.516 0.276-0.517 0.554v0.616h-0.516V10.72h0.516v0.258c0.112-0.129 0.241-0.267 0.517-0.267v0.491z"></path><path d="M0 0.56v7.93h9.395c0.178 0.948 1.009 1.666 2.009 1.666s1.83-0.718 2.008-1.666H16V0.56H0z m11.195 7.221h0.464v0.441h-0.378c0.047 0.403-0.185 0.572-0.198 0.707h1.264v0.441H10.456v-0.441c0.215-0.144 0.327-0.508 0.258-0.703h-0.396v-0.448h0.318c-0.086-0.203-0.086-0.27-0.086-0.448s0.147-0.758 0.912-0.754c0.705 0.004 0.91 0.584 0.91 1l-0.537 0c-0.036-0.251-0.135-0.458-0.368-0.458-0.357 0-0.358 0.224-0.357 0.301s0.013 0.262 0.086 0.364z m3.297-0.798h-1.386c-0.366-0.551-0.992-0.914-1.703-0.914S10.067 6.432 9.701 6.982H1.508V2.068h12.984V6.982z"></path></g><g id="SvgjsG3787"><path d="M8.312 8.242l0 0.521c0.492-0.069 0.443-0.509 0-0.52v-0.001z m-0.51-0.627V7.155c-0.365 0.064-0.358 0.454 0 0.46z"></path><path d="M8.055 5.946c-1.128 0-2.044 0.915-2.044 2.043 0 1.129 0.915 2.044 2.045 2.044 1.129 0 2.043-0.915 2.043-2.044 0-1.128-0.915-2.043-2.043-2.043l-0.001 0z m0.251 3.336v0.364h-0.507v-0.37c-0.29-0.043-0.822-0.323-0.855-0.924h0.534c0.034 0.154 0.078 0.34 0.321 0.409l-0.001-0.605c-0.334-0.048-0.814-0.194-0.814-0.73 0-0.602 0.666-0.789 0.813-0.789v-0.364h0.502v0.364c0.338 0.02 0.83 0.302 0.829 0.84h-0.528c-0.014-0.16-0.137-0.317-0.296-0.327v0.554c0.403 0.041 0.877 0.195 0.877 0.738 0 0.473-0.475 0.818-0.877 0.84h0.002z"></path><path d="M0 11.93h16V4H0v7.93z m1.508-1.508V5.508h12.984V10.422H1.508z"></path></g><g id="SvgjsG3785"><path d="M13.113 6.956a0.719 0.719 0 1 0 1.437 0 0.719 0.719 0 1 0-1.437 0"></path><path d="M8.74 3.712a1.025 1.025 0 0 0 1.025-1.025A1.026 1.026 0 0 0 8.74 1.663a1.025 1.025 0 0 0 0 2.049z m-5.559 0.007c-0.575 0-1.04-0.462-1.04-1.032C2.143 2.117 2.606 1.655 3.182 1.655c0.574 0 1.04 0.462 1.04 1.032s-0.466 1.032-1.04 1.032z m11.692 4.31h-1.94c-0.009 0-0.648-0.058-0.648-0.058l-0.813-2.832C11.145 4 10.189 4.035 10.189 4.035H7.56s-0.954-0.035-1.281 1.104l-0.401 1.395-0.4-1.395c-0.328-1.139-1.282-1.105-1.282-1.104h-2.034s-0.955-0.035-1.282 1.104L0.061 7.993c-0.078 0.267 0.068 0.47 0.301 0.537 0.233 0.067 0.471-0.051 0.532-0.264l0.798-2.78 0.389-0.001-1.164 4.815h1.029v3.42a0.509 0.509 0 0 0 0.509 0.511 0.512 0.512 0 0 0 0.511-0.511V10.3h0.431v3.42a0.51 0.51 0 0 0 0.509 0.511 0.512 0.512 0 0 0 0.512-0.512V10.299h1.011l-1.152-4.815 0.387 0.001L5.453 8.237c0.013 0.047 0.034 0.089 0.061 0.128 0.077 0.116 0.211 0.182 0.363 0.176 0.15 0.005 0.284-0.059 0.361-0.175a0.373 0.373 0 0 0 0.067-0.141l0.785-2.74 0.358 0v8.136a0.603 0.603 0 0 0 0.604 0.601 0.601 0.601 0 0 0 0.6-0.601v-4.629h0.445v4.629a0.601 0.601 0 0 0 0.601 0.601c0.333 0 0.605-0.269 0.605-0.601v-8.136l0.389 0 0.764 2.781c0.04 0.137 0.155 0.228 0.292 0.262 0.006 0.002 0.009 0.006 0.015 0.005 0.12 0.028 0.681 0.186 1.094 0.304V13.883a0.423 0.423 0 0 0 0.845 0V11.362H14.032v2.521c0 0.233 0.189 0.423 0.422 0.423s0.424-0.189 0.424-0.423V9.17h0.326v1.598c0 0.174 0.142 0.316 0.314 0.316 0.174 0 0.311-0.142 0.311-0.316V8.951c0-0.509-0.447-0.921-0.956-0.922z"></path></g><g id="SvgjsG3792"><use xlink:href="#SvgjsG3783" transform="translate(0, 0) scale(2.1)" fill="rgba(15, 69, 123, 0.17)"></use><use xlink:href="#SvgjsG3784" transform="translate(0, 73.5) scale(2.1)" fill="rgba(15, 69, 123, 0.17)"></use><use xlink:href="#SvgjsG3785" transform="translate(0, 147) scale(2.1)" fill="rgba(15, 69, 123, 0.17)"></use><use xlink:href="#SvgjsG3786" transform="translate(0, 220.5) scale(2.1)" fill="rgba(15, 69, 123, 0.17)"></use><use xlink:href="#SvgjsG3787" transform="translate(0, 294) scale(2.1)" fill="rgba(15, 69, 123, 0.17)"></use><use xlink:href="#SvgjsG3785" transform="translate(0, 367.5) scale(2.1)" fill="rgba(15, 69, 123, 0.17)"></use><use xlink:href="#SvgjsG3783" transform="translate(0, 441) scale(2.1)" fill="rgba(15, 69, 123, 0.17)"></use><use xlink:href="#SvgjsG3783" transform="translate(0, 514.5) scale(2.1)" fill="rgba(15, 69, 123, 0.17)"></use><use xlink:href="#SvgjsG3788" transform="translate(0, 588) scale(2.1)" fill="rgba(15, 69, 123, 0.17)"></use><use xlink:href="#SvgjsG3789" transform="translate(0, 661.5) scale(2.1)" fill="rgba(15, 69, 123, 0.17)"></use><use xlink:href="#SvgjsG3785" transform="translate(73.5, 0) scale(2.1)" fill="rgba(15, 69, 123, 0.17)"></use><use xlink:href="#SvgjsG3786" transform="translate(73.5, 73.5) scale(2.1)" fill="rgba(15, 69, 123, 0.17)"></use><use xlink:href="#SvgjsG3790" transform="translate(73.5, 147) scale(2.1)" fill="rgba(15, 69, 123, 0.17)"></use><use xlink:href="#SvgjsG3788" transform="translate(73.5, 220.5) scale(2.1)" fill="rgba(15, 69, 123, 0.17)"></use><use xlink:href="#SvgjsG3787" transform="translate(73.5, 294) scale(2.1)" fill="rgba(15, 69, 123, 0.17)"></use><use xlink:href="#SvgjsG3789" transform="translate(73.5, 367.5) scale(2.1)" fill="rgba(15, 69, 123, 0.17)"></use><use xlink:href="#SvgjsG3790" transform="translate(73.5, 441) scale(2.1)" fill="rgba(15, 69, 123, 0.17)"></use><use xlink:href="#SvgjsG3791" transform="translate(73.5, 514.5) scale(2.1)" fill="rgba(15, 69, 123, 0.17)"></use><use xlink:href="#SvgjsG3791" transform="translate(73.5, 588) scale(2.1)" fill="rgba(15, 69, 123, 0.17)"></use><use xlink:href="#SvgjsG3786" transform="translate(73.5, 661.5) scale(2.1)" fill="rgba(15, 69, 123, 0.17)"></use><use xlink:href="#SvgjsG3785" transform="translate(147, 0) scale(2.1)" fill="rgba(15, 69, 123, 0.17)"></use><use xlink:href="#SvgjsG3784" transform="translate(147, 73.5) scale(2.1)" fill="rgba(15, 69, 123, 0.17)"></use><use xlink:href="#SvgjsG3790" transform="translate(147, 147) scale(2.1)" fill="rgba(15, 69, 123, 0.17)"></use><use xlink:href="#SvgjsG3790" transform="translate(147, 220.5) scale(2.1)" fill="rgba(15, 69, 123, 0.17)"></use><use xlink:href="#SvgjsG3784" transform="translate(147, 294) scale(2.1)" fill="rgba(15, 69, 123, 0.17)"></use><use xlink:href="#SvgjsG3784" transform="translate(147, 367.5) scale(2.1)" fill="rgba(15, 69, 123, 0.17)"></use><use xlink:href="#SvgjsG3788" transform="translate(147, 441) scale(2.1)" fill="rgba(15, 69, 123, 0.17)"></use><use xlink:href="#SvgjsG3784" transform="translate(147, 514.5) scale(2.1)" fill="rgba(15, 69, 123, 0.17)"></use><use xlink:href="#SvgjsG3791" transform="translate(147, 588) scale(2.1)" fill="rgba(15, 69, 123, 0.17)"></use><use xlink:href="#SvgjsG3784" transform="translate(147, 661.5) scale(2.1)" fill="rgba(15, 69, 123, 0.17)"></use><use xlink:href="#SvgjsG3789" transform="translate(220.5, 0) scale(2.1)" fill="rgba(15, 69, 123, 0.17)"></use><use xlink:href="#SvgjsG3789" transform="translate(220.5, 73.5) scale(2.1)" fill="rgba(15, 69, 123, 0.17)"></use><use xlink:href="#SvgjsG3783" transform="translate(220.5, 147) scale(2.1)" fill="rgba(15, 69, 123, 0.17)"></use><use xlink:href="#SvgjsG3786" transform="translate(220.5, 220.5) scale(2.1)" fill="rgba(15, 69, 123, 0.17)"></use><use xlink:href="#SvgjsG3783" transform="translate(220.5, 294) scale(2.1)" fill="rgba(15, 69, 123, 0.17)"></use><use xlink:href="#SvgjsG3786" transform="translate(220.5, 367.5) scale(2.1)" fill="rgba(15, 69, 123, 0.17)"></use><use xlink:href="#SvgjsG3789" transform="translate(220.5, 441) scale(2.1)" fill="rgba(15, 69, 123, 0.17)"></use><use xlink:href="#SvgjsG3786" transform="translate(220.5, 514.5) scale(2.1)" fill="rgba(15, 69, 123, 0.17)"></use><use xlink:href="#SvgjsG3785" transform="translate(220.5, 588) scale(2.1)" fill="rgba(15, 69, 123, 0.17)"></use><use xlink:href="#SvgjsG3785" transform="translate(220.5, 661.5) scale(2.1)" fill="rgba(15, 69, 123, 0.17)"></use><use xlink:href="#SvgjsG3783" transform="translate(294, 0) scale(2.1)" fill="rgba(15, 69, 123, 0.17)"></use><use xlink:href="#SvgjsG3789" transform="translate(294, 73.5) scale(2.1)" fill="rgba(15, 69, 123, 0.17)"></use><use xlink:href="#SvgjsG3784" transform="translate(294, 147) scale(2.1)" fill="rgba(15, 69, 123, 0.17)"></use><use xlink:href="#SvgjsG3787" transform="translate(294, 220.5) scale(2.1)" fill="rgba(15, 69, 123, 0.17)"></use><use xlink:href="#SvgjsG3789" transform="translate(294, 294) scale(2.1)" fill="rgba(15, 69, 123, 0.17)"></use><use xlink:href="#SvgjsG3783" transform="translate(294, 367.5) scale(2.1)" fill="rgba(15, 69, 123, 0.17)"></use><use xlink:href="#SvgjsG3783" transform="translate(294, 441) scale(2.1)" fill="rgba(15, 69, 123, 0.17)"></use><use xlink:href="#SvgjsG3790" transform="translate(294, 514.5) scale(2.1)" fill="rgba(15, 69, 123, 0.17)"></use><use xlink:href="#SvgjsG3785" transform="translate(294, 588) scale(2.1)" fill="rgba(15, 69, 123, 0.17)"></use><use xlink:href="#SvgjsG3786" transform="translate(294, 661.5) scale(2.1)" fill="rgba(15, 69, 123, 0.17)"></use><use xlink:href="#SvgjsG3791" transform="translate(367.5, 0) scale(2.1)" fill="rgba(15, 69, 123, 0.17)"></use><use xlink:href="#SvgjsG3791" transform="translate(367.5, 73.5) scale(2.1)" fill="rgba(15, 69, 123, 0.17)"></use><use xlink:href="#SvgjsG3791" transform="translate(367.5, 147) scale(2.1)" fill="rgba(15, 69, 123, 0.17)"></use><use xlink:href="#SvgjsG3788" transform="translate(367.5, 220.5) scale(2.1)" fill="rgba(15, 69, 123, 0.17)"></use><use xlink:href="#SvgjsG3785" transform="translate(367.5, 294) scale(2.1)" fill="rgba(15, 69, 123, 0.17)"></use><use xlink:href="#SvgjsG3783" transform="translate(367.5, 367.5) scale(2.1)" fill="rgba(15, 69, 123, 0.17)"></use><use xlink:href="#SvgjsG3785" transform="translate(367.5, 441) scale(2.1)" fill="rgba(15, 69, 123, 0.17)"></use><use xlink:href="#SvgjsG3786" transform="translate(367.5, 514.5) scale(2.1)" fill="rgba(15, 69, 123, 0.17)"></use><use xlink:href="#SvgjsG3790" transform="translate(367.5, 588) scale(2.1)" fill="rgba(15, 69, 123, 0.17)"></use><use xlink:href="#SvgjsG3787" transform="translate(367.5, 661.5) scale(2.1)" fill="rgba(15, 69, 123, 0.17)"></use><use xlink:href="#SvgjsG3790" transform="translate(441, 0) scale(2.1)" fill="rgba(15, 69, 123, 0.17)"></use><use xlink:href="#SvgjsG3786" transform="translate(441, 73.5) scale(2.1)" fill="rgba(15, 69, 123, 0.17)"></use><use xlink:href="#SvgjsG3788" transform="translate(441, 147) scale(2.1)" fill="rgba(15, 69, 123, 0.17)"></use><use xlink:href="#SvgjsG3787" transform="translate(441, 220.5) scale(2.1)" fill="rgba(15, 69, 123, 0.17)"></use><use xlink:href="#SvgjsG3790" transform="translate(441, 294) scale(2.1)" fill="rgba(15, 69, 123, 0.17)"></use><use xlink:href="#SvgjsG3790" transform="translate(441, 367.5) scale(2.1)" fill="rgba(15, 69, 123, 0.17)"></use><use xlink:href="#SvgjsG3789" transform="translate(441, 441) scale(2.1)" fill="rgba(15, 69, 123, 0.17)"></use><use xlink:href="#SvgjsG3788" transform="translate(441, 514.5) scale(2.1)" fill="rgba(15, 69, 123, 0.17)"></use><use xlink:href="#SvgjsG3784" transform="translate(441, 588) scale(2.1)" fill="rgba(15, 69, 123, 0.17)"></use><use xlink:href="#SvgjsG3786" transform="translate(441, 661.5) scale(2.1)" fill="rgba(15, 69, 123, 0.17)"></use><use xlink:href="#SvgjsG3791" transform="translate(514.5, 0) scale(2.1)" fill="rgba(15, 69, 123, 0.17)"></use><use xlink:href="#SvgjsG3786" transform="translate(514.5, 73.5) scale(2.1)" fill="rgba(15, 69, 123, 0.17)"></use><use xlink:href="#SvgjsG3791" transform="translate(514.5, 147) scale(2.1)" fill="rgba(15, 69, 123, 0.17)"></use><use xlink:href="#SvgjsG3790" transform="translate(514.5, 220.5) scale(2.1)" fill="rgba(15, 69, 123, 0.17)"></use><use xlink:href="#SvgjsG3790" transform="translate(514.5, 294) scale(2.1)" fill="rgba(15, 69, 123, 0.17)"></use><use xlink:href="#SvgjsG3786" transform="translate(514.5, 367.5) scale(2.1)" fill="rgba(15, 69, 123, 0.17)"></use><use xlink:href="#SvgjsG3787" transform="translate(514.5, 441) scale(2.1)" fill="rgba(15, 69, 123, 0.17)"></use><use xlink:href="#SvgjsG3789" transform="translate(514.5, 514.5) scale(2.1)" fill="rgba(15, 69, 123, 0.17)"></use><use xlink:href="#SvgjsG3784" transform="translate(514.5, 588) scale(2.1)" fill="rgba(15, 69, 123, 0.17)"></use><use xlink:href="#SvgjsG3788" transform="translate(514.5, 661.5) scale(2.1)" fill="rgba(15, 69, 123, 0.17)"></use><use xlink:href="#SvgjsG3788" transform="translate(588, 0) scale(2.1)" fill="rgba(15, 69, 123, 0.17)"></use><use xlink:href="#SvgjsG3789" transform="translate(588, 73.5) scale(2.1)" fill="rgba(15, 69, 123, 0.17)"></use><use xlink:href="#SvgjsG3785" transform="translate(588, 147) scale(2.1)" fill="rgba(15, 69, 123, 0.17)"></use><use xlink:href="#SvgjsG3787" transform="translate(588, 220.5) scale(2.1)" fill="rgba(15, 69, 123, 0.17)"></use><use xlink:href="#SvgjsG3786" transform="translate(588, 294) scale(2.1)" fill="rgba(15, 69, 123, 0.17)"></use><use xlink:href="#SvgjsG3787" transform="translate(588, 367.5) scale(2.1)" fill="rgba(15, 69, 123, 0.17)"></use><use xlink:href="#SvgjsG3787" transform="translate(588, 441) scale(2.1)" fill="rgba(15, 69, 123, 0.17)"></use><use xlink:href="#SvgjsG3786" transform="translate(588, 514.5) scale(2.1)" fill="rgba(15, 69, 123, 0.17)"></use><use xlink:href="#SvgjsG3785" transform="translate(588, 588) scale(2.1)" fill="rgba(15, 69, 123, 0.17)"></use><use xlink:href="#SvgjsG3788" transform="translate(588, 661.5) scale(2.1)" fill="rgba(15, 69, 123, 0.17)"></use><use xlink:href="#SvgjsG3789" transform="translate(661.5, 0) scale(2.1)" fill="rgba(15, 69, 123, 0.17)"></use><use xlink:href="#SvgjsG3787" transform="translate(661.5, 73.5) scale(2.1)" fill="rgba(15, 69, 123, 0.17)"></use><use xlink:href="#SvgjsG3790" transform="translate(661.5, 147) scale(2.1)" fill="rgba(15, 69, 123, 0.17)"></use><use xlink:href="#SvgjsG3783" transform="translate(661.5, 220.5) scale(2.1)" fill="rgba(15, 69, 123, 0.17)"></use><use xlink:href="#SvgjsG3783" transform="translate(661.5, 294) scale(2.1)" fill="rgba(15, 69, 123, 0.17)"></use><use xlink:href="#SvgjsG3789" transform="translate(661.5, 367.5) scale(2.1)" fill="rgba(15, 69, 123, 0.17)"></use><use xlink:href="#SvgjsG3784" transform="translate(661.5, 441) scale(2.1)" fill="rgba(15, 69, 123, 0.17)"></use><use xlink:href="#SvgjsG3789" transform="translate(661.5, 514.5) scale(2.1)" fill="rgba(15, 69, 123, 0.17)"></use><use xlink:href="#SvgjsG3790" transform="translate(661.5, 588) scale(2.1)" fill="rgba(15, 69, 123, 0.17)"></use><use xlink:href="#SvgjsG3783" transform="translate(661.5, 661.5) scale(2.1)" fill="rgba(15, 69, 123, 0.17)"></use></g></defs></svg>